<svg xmlns="http://www.w3.org/2000/svg" xmlns:xlink="http://www.w3.org/1999/xlink" width="144" height="72"><path fill="grey" stroke="grey" d="M30.59 68.24L24.96 68.24Q11.21 54.70 11.21 35.89L11.21 35.89Q11.21 17.26 24.96 3.73L24.96 3.73L30.59 3.73Q16.63 17.47 16.63 36.07L16.63 36.07Q16.63 54.49 30.59 68.24L30.59 68.24ZM57.90 31.39L51.71 34.21Q48.83 24.43 44.79 17.05L44.79 17.05L50.63 14.63Q54.88 22.32 57.90 31.39L57.90 31.39ZM74.74 27.35L68.63 30.02Q66.20 21.06 61.84 12.80L61.84 12.80L67.61 10.44Q71.75 18 74.74 27.35L74.74 27.35ZM60.86 65.00L56.67 60.05Q75.30 52.95 83.11 37.79L83.11 37.79Q88.00 28.37 90.49 12.30L90.49 12.30L96.71 14.24Q93.48 34.28 85.25 46.30L85.25 46.30Q77.24 58.18 60.86 65.00L60.86 65.00ZM119.04 68.24L113.41 68.24Q127.37 54.49 127.37 35.96L127.37 35.96Q127.37 17.58 113.41 3.73L113.41 3.73L119.04 3.73Q132.79 17.26 132.79 35.96L132.79 35.96Q132.79 54.70 119.04 68.24L119.04 68.24Z"/></svg>